<svg xmlns="http://www.w3.org/2000/svg" viewBox="0 0 32 32"><title>icon-black-2</title><rect width="32" height="32" style="fill:#fff"/><path d="M15.9,26.22a.08.08,0,0,0-.07-.1l-2.52-.44a.08.08,0,0,1-.05,0l-.41-.58-.05,0-1.58-.29a.08.08,0,0,0-.1.07l-.24,1.36,4.88.86Z"/><path d="M10.42,28.75a.08.08,0,0,0,.07.1l4.72.83a.08.08,0,0,0,.1-.07l.37-2.08-4.88-.86Z"/><path d="M17.52,2.48h0C13,1.7,7.39,3.12,6.07,9.37c-1.36,6.44,5.52,12.72,5.52,12.72l.5.09C10.29,19.55,8.22,14.49,9,10.09,9.76,5.21,13.78,1.85,17.52,2.48Z"/><path d="M26,12.88c.9-6.33-3.93-9.6-8.43-10.39,3.75.67,6.38,5.21,5.47,10.08C22.22,17,18.55,21,16,22.86l.5.09S25.08,19.41,26,12.88Z"/><polygon points="17.56 2.49 17.57 2.49 17.57 2.49 17.56 2.49 17.56 2.49 17.56 2.49 17.56 2.49"/><path d="M17.54,2.49h0Z"/><path d="M17.55,2.49h0Z"/><polygon points="17.56 2.49 17.56 2.49 17.55 2.49 17.55 2.49 17.55 2.49 17.55 2.49 17.56 2.49"/><circle cx="17.55" cy="2.49" transform="translate(12.18 19.38) rotate(-80.44)"/><polygon points="17.56 2.49 17.56 2.49 17.57 2.49 17.56 2.49 17.56 2.49 17.56 2.49 17.55 2.49 17.56 2.49"/><path d="M12.78,10.82a37.14,37.14,0,0,0,.16,11.51l1.09.19h0l1.07.19A37.14,37.14,0,0,0,19.19,12c.86-4.9.14-9.13-1.61-9.46h0C15.76,2.21,13.64,5.93,12.78,10.82Z"/></svg>