<svg xmlns="http://www.w3.org/2000/svg" viewBox="0 0 32 32"><title>icon-black-1</title><path d="M17.77.23h0C12.54-.69,6,1,4.41,8.27,2.82,15.78,10.85,23.1,10.85,23.1l.58.1c-2.1-3.07-4.51-9-3.65-14.1C8.72,3.42,13.41-.51,17.77.23Z"/><path d="M27.67,12.37C28.71,5,23.09,1.17,17.83.24,22.2,1,25.28,6.32,24.22,12c-1,5.11-5.24,9.84-8.26,12l.58.1S26.59,20,27.67,12.37Z"/><path d="M17.82.24h0Z"/><path d="M17.8.23h0Z"/><path d="M17.81.23h0Z"/><polygon points="17.82 0.24 17.82 0.23 17.82 0.23 17.82 0.23 17.81 0.23 17.82 0.23 17.82 0.24"/><circle cx="17.81" cy="0.23" transform="translate(14.62 17.76) rotate(-80.44)"/><path d="M17.82.24h0Z"/><path d="M12.24,10a43.34,43.34,0,0,0,.19,13.42l1.27.22h0l1.25.22a43.34,43.34,0,0,0,4.77-12.55c1-5.72.17-10.66-1.88-11h-.06C15.72-.1,13.25,4.25,12.24,10Z"/><rect x="9.76" y="27.3" width="5.83" height="4.23" transform="translate(5.3 -1.75) rotate(10)"/></svg>