<svg xmlns="http://www.w3.org/2000/svg" viewBox="0 0 32 32"><title>icon-black-2</title><path d="M15.88,28a.1.1,0,0,0-.08-.11l-2.95-.52a.1.1,0,0,1-.06,0l-.48-.68a.1.1,0,0,0-.06,0l-1.85-.34a.1.1,0,0,0-.11.08L10,27.88l5.7,1Z"/><path d="M9.48,30.91a.1.1,0,0,0,.08.11l5.51,1a.1.1,0,0,0,.11-.08l.43-2.42-5.7-1Z"/><path d="M17.78.23h0C12.53-.69,5.95,1,4.4,8.27c-1.59,7.53,6.44,14.85,6.44,14.85l.58.1c-2.1-3.07-4.51-9-3.66-14.12C8.72,3.42,13.4-.51,17.78.23Z"/><path d="M27.68,12.38C28.73,5,23.09,1.17,17.83.24,22.21,1,25.29,6.33,24.23,12c-1,5.12-5.24,9.85-8.26,12l.58.1S26.6,20,27.68,12.38Z"/><path d="M17.82.24h0Z"/><path d="M17.8.23h0Z"/><path d="M17.81.23h0Z"/><polygon points="17.82 0.24 17.82 0.24 17.82 0.23 17.82 0.23 17.81 0.23 17.82 0.24 17.82 0.24"/><circle cx="17.81" cy="0.23" transform="translate(14.62 17.76) rotate(-80.44)"/><path d="M17.82.24h0Z"/><path d="M12.24,10a43.38,43.38,0,0,0,.19,13.44l1.27.22h0l1.25.22a43.38,43.38,0,0,0,4.77-12.56c1-5.73.17-10.67-1.89-11h-.06C15.72-.1,13.25,4.25,12.24,10Z"/></svg>