<?xml version="1.0"?><svg width="640" height="480" xmlns="http://www.w3.org/2000/svg" xmlns:xlink="http://www.w3.org/1999/xlink">
 <defs>
  <linearGradient id="linearGradient4088">
   <stop stop-color="#a00000" id="stop4089" offset="0"/>
   <stop stop-color="#510000" id="stop4090" offset="1"/>
  </linearGradient>
  <linearGradient id="linearGradient3462">
   <stop stop-color="#ff5f5f" id="stop3463" offset="0"/>
   <stop stop-color="#890000" id="stop3464" offset="1"/>
  </linearGradient>
  <linearGradient y2="0.351653" x2="0.851133" y1="0.351653" x1="0.794755" gradientTransform="scale(0.970223,1.030691)" id="linearGradient3261" xlink:href="#linearGradient4088"/>
  <radialGradient r="243.32635" fy="202.83472" fx="286.42487" cy="200.2068" cx="283.42154" gradientTransform="scale(0.9254224,1.0805876)" gradientUnits="userSpaceOnUse" id="radialGradient3263" xlink:href="#linearGradient3462"/>
 </defs>
 <metadata id="metadata4">image/svg+xmlBalloons2004-08-30Jean-Victor Balinjean.victor.balin@gmail.comfr-FRballoonsparty</metadata>
 <g>
  <path fill="#000000" fill-rule="evenodd" stroke-width="2.664401" stroke-linecap="round" stroke-linejoin="round" stroke-miterlimit="4" d="m313.851349,284.210846c-0.685059,0.024994 -1.239349,0.565765 -1.28125,1.25c-1.33548,15.478699 -6.221008,31.683868 -8.75,47.90625c-2.528992,16.222382 -2.699097,32.538757 5.65625,48c0.019501,0.032135 0.040344,0.063385 0.0625,0.09375c10.911987,16.654907 28.412415,25.851135 45.03125,35.53125c16.618835,9.680115 32.342987,19.787598 40.375,38c0.017517,0.053345 0.038391,0.10553 0.0625,0.15625c13.496094,23.35498 11.361053,50.89917 8.8125,77.093719c-1.80072,20.693848 1.523926,43.348206 17.09375,58.8125c8.98053,12.083801 16.871765,26.196838 15.5625,41.40625c-0.060425,0.733521 0.48526,1.377075 1.21875,1.4375c0.73349,0.060425 1.377075,-0.485229 1.4375,-1.21875c1.399261,-16.254761 -6.937744,-30.940857 -16.0625,-43.21875c-0.048889,-0.045532 -0.101105,-0.08728 -0.15625,-0.125c-14.908813,-14.682129 -18.205109,-36.530151 -16.4375,-56.84375c2.547424,-26.183014 4.836639,-54.346893 -9.09375,-78.562469c-0.019287,-0.043762 -0.043121,-0.081329 -0.0625,-0.125c-8.419556,-18.969147 -24.760864,-29.398193 -41.40625,-39.09375c-16.683685,-9.717896 -33.685089,-18.753143 -44.125,-34.6875c-7.928925,-14.73468 -7.828674,-30.310303 -5.34375,-46.25c2.489838,-15.971405 7.412048,-32.224152 8.78125,-48.09375c0.039795,-0.383881 -0.088837,-0.766144 -0.3526,-1.047913c-0.263763,-0.281738 -0.636719,-0.435272 -1.0224,-0.420837z" id="path2211"/>
  <path fill="url(#linearGradient3261)" fill-rule="evenodd" stroke-width="1pt" d="m307.171051,262.077454c1.608337,5.053375 -0.203552,10.424408 -2.653503,14.883118c-0.934448,2.080109 -2.501831,3.742493 -3.756104,5.611816c-0.936401,1.366974 -1.465454,3.757507 0.449432,4.563751c1.39151,0.506866 2.939453,0.41922 4.410828,0.411621c3.905914,-0.251343 7.878021,-2.07431 11.762787,-0.73584c3.055054,1.349945 6.041046,3.383209 9.532654,3.142792c2.283356,-0.025665 3.590515,-2.728607 2.15213,-4.528412c-1.290039,-2.134033 -3.230713,-3.904663 -3.854431,-6.404633c-2.152374,-5.636139 -1.597229,-11.871338 -0.177155,-17.610382c0.213379,-2.315796 -2.59903,-3.593292 -4.536438,-2.819824c-3.999329,1.0401 -7.367737,4.381927 -11.732361,3.914124c-0.549103,-0.066803 -1.089966,-0.208008 -1.597839,-0.428131z" id="path1553"/>
  <path fill="url(#radialGradient3263)" fill-rule="evenodd" stroke-width="1pt" d="m433.970184,132.674576c0,72.830521 -50.845764,131.939316 -113.495026,131.939316c-62.649292,0 -113.495041,-59.108795 -113.495041,-131.939316c0,-72.830505 50.845749,-131.939328 113.495041,-131.939328c62.649261,0 113.495026,59.108822 113.495026,131.939328z" id="path930"/>
  <title>Layer 1</title>
 </g>
</svg>